<svg xmlns="http://www.w3.org/2000/svg" xmlns:xlink="http://www.w3.org/1999/xlink" width="1727.956" height="233.95" viewBox="0 0 1727.956 233.95">
  <defs>
    <linearGradient id="linear-gradient" x1="1.015" y1="0.572" x2="-0.008" y2="0.546" gradientUnits="objectBoundingBox">
      <stop offset="0" stop-color="#258bde"/>
      <stop offset="1" stop-color="#004c7a"/>
    </linearGradient>
    <linearGradient id="linear-gradient-2" x1="1.351" y1="0.454" x2="-0.25" y2="0.488" gradientUnits="objectBoundingBox">
      <stop offset="0" stop-color="#fff"/>
      <stop offset="1" stop-color="#1c98e2"/>
    </linearGradient>
  </defs>
  <g id="Logo" transform="translate(-976.094 -513.793)">
    <path id="l" d="M7.317,225.814-.04,3.456,47.685-.572,55.1,223.594Z" transform="translate(1377.466 526.746) rotate(-13)" fill="#23afe4"/>
    <path id="esskabe" d="M70.962,228.135q-34.448,0-52.7-23.77T0,141.127Q0,101.061,18.6,77.44T72.684,53.82q33.759,0,51.671,23.621t17.913,63.687a4.771,4.771,0,0,1-1.033,3.438q-1.033,1.046-1.033,1.345H48.226a102.41,102.41,0,0,0,5.856,35.431q5.856,16,17.913,16,13.435,0,19.98-13.455t6.889-14.053l36.514,11.96q-7.234,21.528-23.08,33.936T70.962,228.135ZM94.731,121.692q0-17.94-5.512-28.4T72,82.822q-5.856,0-11.368,5.083t-8.956,14.053a54.617,54.617,0,0,0-3.445,19.734ZM225.42,228.135q-28.591,0-46.16-11.212a50.964,50.964,0,0,1-22.735-31.245l37.548-10.764a24.494,24.494,0,0,0,5.167,10.166q7.923,9.867,23.08,9.867a42.713,42.713,0,0,0,16.535-3.289q7.923-3.289,7.923-10.166,0-9.269-14.812-14.352l-40.648-14.352q-16.19-5.98-24.8-17.94t-8.612-29.3q0-16.146,9.129-27.807a57.592,57.592,0,0,1,24.113-17.79,84.243,84.243,0,0,1,32.208-6.129,76.45,76.45,0,0,1,39.959,10.913q18.257,10.913,24.458,29.75l-39.959,10.764a34.08,34.08,0,0,0-4.823-10.166Q235.41,84.915,223.7,84.915a30.1,30.1,0,0,0-14.812,3.438q-6.2,3.439-6.2,10.016,0,7.774,16.879,14.352l34.448,12.259q18.257,7.475,28.591,18.837t10.334,30.5q0,17.342-9.645,29.451a59.294,59.294,0,0,1-25.147,18.239A88.184,88.184,0,0,1,225.42,228.135Zm150.358,0q-28.591,0-46.16-11.212a50.964,50.964,0,0,1-22.735-31.245l37.548-10.764A24.494,24.494,0,0,0,349.6,185.08q7.923,9.867,23.08,9.867a42.712,42.712,0,0,0,16.535-3.289q7.923-3.289,7.923-10.166,0-9.269-14.812-14.352l-40.648-14.352q-16.19-5.98-24.8-17.94t-8.612-29.3q0-16.146,9.129-27.807A57.592,57.592,0,0,1,341.5,59.949a84.243,84.243,0,0,1,32.208-6.129,76.45,76.45,0,0,1,39.959,10.913q18.257,10.913,24.458,29.75l-39.959,10.764a34.081,34.081,0,0,0-4.823-10.166q-7.578-10.166-19.291-10.166a30.1,30.1,0,0,0-14.812,3.438q-6.2,3.439-6.2,10.016,0,7.774,16.879,14.352l34.448,12.259q18.257,7.475,28.591,18.837t10.334,30.5q0,17.342-9.645,29.451A59.294,59.294,0,0,1,408.5,222.006,88.184,88.184,0,0,1,375.779,228.135Zm192.829,0-39.27-83.719-15.846,18.239v61.594H465.265V5.382L513.492,0V111.227l49.26-55.315h52.36l-54.427,60.7,50.638,98.968Zm103.587,0a39.185,39.185,0,0,1-22.391-6.727,44.807,44.807,0,0,1-15.5-18.239,59.138,59.138,0,0,1-5.512-25.863q0-32.591,25.663-45.9t59.766-15.1q0-16.146-2.411-23.92T700.1,84.616q-7.923,0-12.057,5.382a27.7,27.7,0,0,0-5.167,13.754L635.68,96.576q3.445-23.023,21.7-32.89T700.1,53.82q31.347,0,47.021,14.352t15.674,37.375v87.008a96.6,96.6,0,0,0,5.167,29.9l-47.193,3.588-5.512-20.631q-6.2,9.568-18.257,16.146A51.176,51.176,0,0,1,672.194,228.135Zm22.391-29.9a18.69,18.69,0,0,0,9.818-2.392,66.1,66.1,0,0,0,9.818-7.774V141.426q-17.224,0-27.558,8.073t-10.334,25.116q0,11.362,4.65,17.491T694.585,198.235Zm188.073,29.9q-19.29,0-28.591-6.727a35.6,35.6,0,0,1-13.09-18.089l-11.712,22.724-36.514-3.588V5.382L840.977,0V77.44a62.786,62.786,0,0,1,21.7-17.192,61.731,61.731,0,0,1,27.558-6.428q22.391,0,35.136,20.481t12.746,65.929Q938.119,228.135,882.658,228.135Zm-17.913-29.9q15.846,0,20.5-14.651t4.65-43.355q0-20.033-1.895-30.647t-6.545-15.249Q876.8,89.7,867.846,89.7q-6.2,0-14.468,3.887a55.156,55.156,0,0,0-12.4,7.475v53.222q0,23.92,6.717,33.936T864.746,198.235Zm165.1,29.9q-34.448,0-52.7-23.77t-18.257-63.238q0-40.066,18.6-63.687t54.083-23.621q33.758,0,51.671,23.621t17.913,63.687a4.771,4.771,0,0,1-1.034,3.438q-1.033,1.046-1.033,1.345h-91.975a102.411,102.411,0,0,0,5.856,35.431q5.856,16,17.913,16,13.434,0,19.98-13.455t6.889-14.053l36.514,11.96q-7.234,21.528-23.08,33.936T1029.849,228.135Zm23.769-106.443q0-17.94-5.512-28.4t-17.224-10.465q-5.856,0-11.368,5.083t-8.956,14.053a54.617,54.617,0,0,0-3.445,19.734Z" transform="translate(1482.654 518.532)" fill="url(#linear-gradient)"/>
    <path id="Fæl" d="M9,226.042,24.254,11.8,140.245,0V46.143l-64.81,5.166L71.467,84.616l52.689,7.325v46.494H71.467L59.638,222.454Zm180.49,2.093q-25.836,0-40.476-14.352t-14.64-37.076q0-31.993,25.836-45.3t59.594-15.1q0-17.043-2.584-24.368t-11.54-7.325q-14.468,0-17.224,19.136l-38.193-7.176c2.067-15.149.186-26.063,12.357-32.74s25.95-10.016,41.337-10.016q15.157,0,25.147,4.784a50.489,50.489,0,0,1,17.913,14.95,71.834,71.834,0,0,1,21.013-14.8q11.023-4.933,25.836-4.933,32.381,0,49.6,22.126t17.224,62.491v7.475H268.375a105.22,105.22,0,0,0,5.684,35.431q5.684,16,17.4,16,13.779,0,20.324-13.305t6.89-14.2l36.514,11.96q-6.545,21.229-22.735,33.787t-39.959,12.558q-15.846,0-26.869-6.129t-20.324-18.687q-7.578,12.857-23.6,18.837A91.5,91.5,0,0,1,189.49,228.135ZM314.534,121.692q0-17.342-5.512-28.106T293.177,82.822q-10.679,0-17.4,10.764t-7.406,28.106Zm-115.4,76.543q11.023,0,15.846-10.016a45.535,45.535,0,0,0,4.823-19.883v-26.91q-17.224,0-27.558,8.073t-10.334,24.817q0,11.063,4.65,17.491A14.724,14.724,0,0,0,199.135,198.235ZM385.7,226.042V5.382L433.923,0V222.454Z" transform="translate(967.094 518.599)" fill="#20277f"/>
    <path id="t" d="M82.674,204.214q-23.424,0-39.615-9.881t-16.19-35.086V70.172H0l2.067-30.36h26.18L33.07,4.869,75.1,0V39.812h39.959l-2.067,30.36H75.44v88.789q0,8.592,5.167,12.316c3.445,2.482,9.765,0,16.425,0,5.3-3.53,8.477-4.059,15.956-8.3l4.707,3.709-3.33,34.376q-1.378.286-10.851,1.719A139.933,139.933,0,0,1,82.674,204.214Z" transform="translate(2584.782 542.029)" stroke="#23afe4" stroke-width="3" fill="url(#linear-gradient-2)"/>
  </g>
</svg>
